<svg fill="#3481b8" height="512" viewBox="0 0 60 60" width="512" xmlns="http://www.w3.org/2000/svg"><g id="003---Radioactive"><path id="Shape" d="m30.01 24c-3.3075031.0005523-5.9883681 2.6821634-5.988 5.9896666.0003682 3.3075031 2.6818301 5.9885174 5.9893333 5.9883333 3.3075032-.000184 5.9886667-2.6814967 5.9886667-5.9889999-.0060555-3.3055121-2.684487-5.9834964-5.99-5.989zm0 9.977c-2.2030638-.0005524-3.9885521-1.7869362-3.9879997-3.9899999.0005523-2.2030638 1.786936-3.9885521 3.9899998-3.9879998 2.2030637.0005522 3.9885521 1.7869359 3.9879999 3.9899997-.0027569 2.2021494-1.7878495 3.9863472-3.99 3.988z"/><path id="Shape" d="m19.6 10.628c-.2406068.1309814-.4169435.3549362-.4878238.6195561-.0708803.26462-.0300972.5467319.1128238.7804439l6.4 10.384c.2803451.4442632.8553223.598026 1.32.353 1.9469154-.8152181 4.1382996-.8216951 6.09-.018.4693343.2788129 1.0755436.1297085 1.362-.335l6.4-10.384c.142921-.233712.1837041-.5158239.1128238-.7804439-.0708803-.2646199-.247217-.4885747-.4878238-.6195561-6.4980535-3.50544173-14.3239465-3.50544173-20.822 0zm13.53 10.026c-2.0276978-.6724798-4.2183022-.6724798-6.246 0l-5.384-8.746c5.3976062-2.5014331 11.6223938-2.5014331 17.02 0z"/><path id="Shape" d="m40.134 48.226c.1199289.2816489.3622544.4928519.6576457.5731828.2953912.0803308.6113042.0209391.8573543-.1611828 6.2410998-3.8814812 10.1226137-10.6315157 10.338-17.978.0083614-.2751267-.0970515-.5415345-.2914012-.7364519s-.4604489-.301107-.7355988-.2935481l-12.143.341c-.5210554-.0139185-.965413.3747312-1.021.893-.2329444 2.145126-1.3471875 4.0968625-3.076 5.388-.4507609.2788737-.6056191.8610177-.353 1.327zm-.484-16.278 10.278-.288c-.4894475 5.9387897-3.6116303 11.3466599-8.51 14.74l-4.9-9.038c1.6062385-1.4150187 2.7060598-3.3161785 3.132-5.414z"/><path  id="Shape" d="m19.86 48.272 5.793-10.693c.2389687-.4404897.1149909-.9898397-.29-1.285-1.7600131-1.291057-2.8985289-3.2605189-3.139-5.43-.0393382-.3584275-.2685922-.6679204-.6-.81-.264-.114.164-.067-12.568-.424-.27514988-.0075589-.54124911.0986307-.73559879.2935481s-.29976263.4613252-.29140121.7364519c.21555287 7.3355396 4.0863884 14.0769413 10.313 17.961.2378101.1871596.5475831.2565595.8425146.1887524.2949314-.067807.5432917-.2655261.6754854-.5377524zm-9.768-16.612 10.278.288c.4287888 2.0925439 1.5279741 3.9882962 3.131 5.4l-4.901 9.052c-4.8976119-3.393754-8.0190239-8.8015599-8.508-14.74z"/><path id="Shape" d="m30 0c-16.5685425 0-30 13.4314575-30 30s13.4314575 30 30 30 30-13.4314575 30-30c-.018737-16.5607751-13.4392249-29.98126296-30-30zm0 58c-15.463973 0-28-12.536027-28-28s12.536027-28 28-28 28 12.536027 28 28c-.0176345 15.4566626-12.5433374 27.9823655-28 28z"/><path id="Shape" d="m48.376 11.624c-.2510745-.2599566-.6228779-.3642126-.9725073-.2726972-.3496295.0915155-.6226744.3645604-.7141899.7141899-.0915154.3496294.0127406.7214328.2726972.9725073 4.5171938 4.4871366 7.0514958 10.5949558 7.038 16.962 0 19.3-21.66 30.546-37.408 19.9-.4575679-.3092795-1.0792205-.1890679-1.3885.2685s-.1890679 1.0792205.2685 1.3885c17.077 11.543 40.528-.657 40.528-21.557.0148213-6.8977193-2.7304886-13.5146938-7.624-18.376z"/><path id="Shape" d="m6 30c.01322951-8.0386869 4.0458398-15.5381309 10.7446572-19.9818352 6.6988174-4.44370427 15.1761424-5.24280766 22.5873428-2.1291648.3290416.13933358.7074222.09254151.9926094-.12275009s.4338544-.56637482.39-.921-.2735678-.65891633-.6026094-.79824991c-10.597861-4.48005002-22.8800712-1.45931465-30.19097664 7.4252883-7.31090541 8.8846029-7.91056355 21.5186022-1.47402336 31.0557117.20006873.2959945.54285107.4627694.89922423.437502.35637315-.0252673.67219557-.2387381.82849997-.56.1563045-.3212618.1293445-.7015075-.0707242-.997502-2.68070646-3.9570886-4.1105253-8.6283876-4.104-13.408z"/></g></svg>