<svg fill="#3481b8" height="512pt" viewBox="-1 0 512 512.04659" width="512pt" xmlns="http://www.w3.org/2000/svg"><path d="m51.222656 512.046875h204.800782c4.710937 0 8.53125-3.820313 8.53125-8.535156 0-4.710938-3.820313-8.53125-8.53125-8.53125h-204.800782c-18.851562 0-34.132812-15.28125-34.132812-34.132813v-358.402344c0-18.851562 15.28125-34.132812 34.132812-34.132812h51.199219v17.066406h-42.664063c-14.140624 0-25.601562 11.460938-25.601562 25.601563v341.332031c0 14.140625 11.460938 25.601562 25.601562 25.601562h153.597657c4.714843 0 8.535156-3.820312 8.535156-8.535156 0-4.710937-3.820313-8.53125-8.535156-8.53125h-153.597657c-4.714843 0-8.535156-3.820312-8.535156-8.535156v-341.332031c0-4.714844 3.820313-8.535157 8.535156-8.535157h42.664063c0 14.140626 11.464844 25.601563 25.601563 25.601563h153.601562c14.136719 0 25.597656-11.460937 25.597656-25.601563h42.667969c4.710937 0 8.53125 3.820313 8.53125 8.535157v187.734375c0 4.710937 3.820313 8.53125 8.535156 8.53125 4.710938 0 8.53125-3.820313 8.53125-8.53125v-187.734375c0-14.140625-11.460937-25.601563-25.597656-25.601563h-42.667969v-17.066406h51.199219c18.851563 0 34.132813 15.28125 34.132813 34.132812v204.800782c0 4.714844 3.824218 8.535156 8.535156 8.535156 4.714844 0 8.535156-3.820312 8.535156-8.535156v-204.800782c-.03125-28.265624-22.9375-51.171874-51.203125-51.199218h-57.855469c-4.8125-5.40625-11.703125-8.511719-18.941406-8.53125h-26.308594c-4.144531-24.65625-25.492187-42.714844-50.492187-42.714844-25.003907 0-46.347657 18.058594-50.492188 42.714844h-26.308593c-7.242188.019531-14.128907 3.125-18.945313 8.53125h-57.855469c-28.265625.027344-51.1718748 22.933594-51.1992185 51.199218v358.402344c.0273437 28.265625 22.9335935 51.171875 51.1992185 51.199219zm76.800782-452.265625h34.132812c4.714844 0 8.535156-3.820312 8.535156-8.535156 0-18.851563 15.28125-34.132813 34.132813-34.132813 18.851562 0 34.132812 15.28125 34.132812 34.132813 0 4.714844 3.820313 8.535156 8.53125 8.535156h34.136719c4.710938 0 8.53125 3.820312 8.53125 8.53125v34.132812c0 4.714844-3.820312 8.535157-8.53125 8.535157h-153.601562c-4.714844 0-8.535157-3.820313-8.535157-8.535157v-34.132812c0-4.710938 3.820313-8.53125 8.535157-8.53125zm0 0"/><path d="m162.15625 93.914062h85.332031c4.714844 0 8.535157-3.820312 8.535157-8.535156 0-4.710937-3.820313-8.53125-8.535157-8.53125h-85.332031c-4.710938 0-8.53125 3.820313-8.53125 8.53125 0 4.714844 3.820312 8.535156 8.53125 8.535156zm0 0"/><path d="m153.625 230.445312c0-4.710937-3.820312-8.53125-8.535156-8.53125-4.710938 0-8.535156 3.820313-8.535156 8.53125v8.535157h-51.199219v-51.199219h25.601562c4.710938 0 8.53125-3.820312 8.53125-8.535156 0-4.710938-3.820312-8.53125-8.53125-8.53125h-25.601562c-9.425781 0-17.066407 7.640625-17.066407 17.066406v51.199219c0 9.425781 7.640626 17.066406 17.066407 17.066406h51.199219c9.425781 0 17.070312-7.640625 17.070312-17.066406zm0 0"/><path d="m136.554688 290.179688h-51.199219c-9.425781 0-17.066407 7.640624-17.066407 17.066406v51.199218c0 9.425782 7.640626 17.066407 17.066407 17.066407h51.199219c9.425781 0 17.070312-7.640625 17.070312-17.066407v-51.199218c0-9.425782-7.644531-17.066406-17.070312-17.066406zm-51.199219 68.265624v-51.199218h51.199219v51.199218zm0 0"/><path d="m179.222656 204.847656h42.667969c4.710937 0 8.53125-3.820312 8.53125-8.535156 0-4.710938-3.820313-8.53125-8.53125-8.53125h-42.667969c-4.710937 0-8.53125 3.820312-8.53125 8.53125 0 4.714844 3.820313 8.535156 8.53125 8.535156zm0 0"/><path d="m332.824219 187.78125h-76.800781c-4.714844 0-8.535157 3.820312-8.535157 8.53125 0 4.714844 3.820313 8.535156 8.535157 8.535156h76.800781c4.710937 0 8.53125-3.820312 8.53125-8.535156 0-4.710938-3.820313-8.53125-8.53125-8.53125zm0 0"/><path d="m179.222656 238.980469h85.332032c4.714843 0 8.535156-3.820313 8.535156-8.535157 0-4.710937-3.820313-8.53125-8.535156-8.53125h-85.332032c-4.710937 0-8.53125 3.820313-8.53125 8.53125 0 4.714844 3.820313 8.535157 8.53125 8.535157zm0 0"/><path d="m332.824219 238.980469c4.710937 0 8.53125-3.820313 8.53125-8.535157 0-4.710937-3.820313-8.53125-8.53125-8.53125h-34.132813c-4.714844 0-8.535156 3.820313-8.535156 8.53125 0 4.714844 3.820312 8.535157 8.535156 8.535157zm0 0"/><path d="m179.222656 324.3125h42.667969c4.710937 0 8.53125-3.820312 8.53125-8.53125 0-4.714844-3.820313-8.535156-8.53125-8.535156h-42.667969c-4.710937 0-8.53125 3.820312-8.53125 8.535156 0 4.710938 3.820313 8.53125 8.53125 8.53125zm0 0"/><path d="m256.023438 307.246094c-4.714844 0-8.535157 3.820312-8.535157 8.535156 0 4.710938 3.820313 8.53125 8.535157 8.53125h34.132812c4.714844 0 8.535156-3.820312 8.535156-8.53125 0-4.714844-3.820312-8.535156-8.535156-8.535156zm0 0"/><path d="m179.222656 358.445312h51.199219c4.714844 0 8.535156-3.820312 8.535156-8.53125 0-4.714843-3.820312-8.535156-8.535156-8.535156h-51.199219c-4.710937 0-8.53125 3.820313-8.53125 8.535156 0 4.710938 3.820313 8.53125 8.53125 8.53125zm0 0"/><path d="m167.113281 155.242188c-3.832031-2.734376-9.152343-1.847657-11.894531 1.980468l-36.820312 51.53125-9.941407-9.941406c-3.347656-3.234375-8.671875-3.1875-11.960937.105469-3.292969 3.292969-3.339844 8.613281-.105469 11.960937l17.066406 17.066406c1.601563 1.601563 3.769531 2.5 6.03125 2.5h.703125c2.5-.207031 4.78125-1.507812 6.234375-3.546874l42.667969-59.734376c1.320312-1.84375 1.855469-4.136718 1.484375-6.371093-.371094-2.238281-1.617187-4.234375-3.464844-5.550781zm0 0"/><path d="m505.554688 429.152344c5.378906-6.351563 5.355468-15.667969-.050782-21.996094-14.574218-17.195312-53.957031-58.976562-104.824218-75.75-10.410157-3.484375-21.207032-5.675781-32.152344-6.53125-.785156-.082031-1.578125-.101562-2.371094-.167969-.796875-.070312-1.605469-.144531-2.390625-.179687-1.777344-.167969-3.558594-.242188-5.34375-.214844-3.3125.007812-6.625.1875-9.921875.539062-66.875 5.433594-121.488281 63.804688-137.191406 82.335938-5.398438 6.332031-5.398438 15.644531 0 21.976562 18.328125 21.53125 39.65625 40.320313 63.324218 55.789063.121094.078125.285157.179687.445313.265625 24.679687 16.65625 53.582031 25.960938 83.34375 26.828125 3.421875-.011719 6.839844-.207031 10.242187-.582031 5.738282-.445313 11.441407-1.28125 17.066407-2.507813 57.652343-12.382812 103.003906-59.929687 119.824219-79.804687zm-138.742188 65.351562c-2.84375.230469-5.683594.46875-8.535156.46875-.953125 0-1.886719-.105468-2.824219-.144531-1.707031-.042969-3.480469-.171875-5.222656-.300781-38.949219-4.246094-68.453125-37.132813-68.472657-76.3125-.015624-39.179688 29.460938-72.089844 68.40625-76.375 2.746094-.210938 5.484376-.460938 8.269532-.460938 2.097656 0 4.164062.15625 6.21875.316406.699218.042969 1.390625.101563 2.089844.152344 38.882812 4.320313 68.304687 37.171875 68.324218 76.292969.019532 39.121094-29.371094 72.003906-68.246094 76.363281zm-142.507812-76.28125c15.816406-18.535156 33.976562-34.929687 54.023437-48.777344-18.363281 29.875-18.363281 67.542969 0 97.417969-19.996094-13.851562-38.144531-30.199219-54.007813-48.640625zm214.1875 48.640625c18.316406-29.839843 18.316406-67.441406 0-97.28125 19.988281 13.855469 38.132812 30.199219 53.988281 48.640625-15.796875 18.46875-33.929688 34.804688-53.9375 48.597656zm0 0"/><path d="m358.421875 392.578125c-14.136719 0-25.597656 11.464844-25.597656 25.601563 0 14.140624 11.460937 25.601562 25.597656 25.601562 14.140625 0 25.601563-11.460938 25.601563-25.601562 0-14.136719-11.460938-25.601563-25.601563-25.601563zm0 34.136719c-4.710937 0-8.53125-3.820313-8.53125-8.535156 0-4.710938 3.820313-8.53125 8.53125-8.53125 4.714844 0 8.535156 3.820312 8.535156 8.53125 0 4.714843-3.820312 8.535156-8.535156 8.535156zm0 0"/><path d="m358.421875 358.445312c-32.988281 0-59.730469 26.746094-59.730469 59.734376 0 32.988281 26.742188 59.734374 59.730469 59.734374 32.992187 0 59.734375-26.746093 59.734375-59.734374-.042969-32.972657-26.761719-59.691407-59.734375-59.734376zm0 102.402344c-23.5625 0-42.664063-19.105468-42.664063-42.667968s19.101563-42.667969 42.664063-42.667969c23.566406 0 42.667969 19.105469 42.667969 42.667969-.027344 23.550781-19.113282 42.640624-42.667969 42.667968zm0 0"/></svg>