<svg fill="#3481b8" height="512" viewBox="0 0 57 60" width="512" xmlns="http://www.w3.org/2000/svg"><g id="Page-1"><g id="021---Shopping-List" ><path id="Shape" d="m39 60c1.6568542 0 3-1.3431458 3-3v-54c0-1.65685425-1.3431458-3-3-3h-36c-1.65685425 0-3 1.34314575-3 3v54c0 1.6568542 1.34314575 3 3 3zm1-57v54c0 .5522847-.4477153 1-1 1h-23v-56h23c.5522847 0 1 .44771525 1 1zm-38 54v-54c0-.55228475.44771525-1 1-1h11v56h-11c-.55228475 0-1-.4477153-1-1z"/><path id="Shape" d="m6.293 10.707c.39049985.3903819 1.02350015.3903819 1.414 0l4-4c.2599566-.25107447.3642126-.62287789.2726972-.97250732-.0915155-.34962944-.3645604-.6226744-.7141899-.71418984-.3496294-.09151544-.7214328.01274058-.9725073.27269716l-3.293 3.293-1.293-1.293c-.25107447-.25995658-.62287789-.3642126-.97250732-.27269716-.34962944.09151544-.6226744.3645604-.71418984.71418984-.09151544.34962943.01274058.72143285.27269716.97250732z"/><path id="Shape" d="m19 9h18c.5522847 0 1-.44771525 1-1s-.4477153-1-1-1h-18c-.5522847 0-1 .44771525-1 1s.4477153 1 1 1z"/><path id="Shape" d="m10.293 15.293-3.293 3.293-1.293-1.293c-.39237889-.3789722-1.01608478-.3735524-1.40181858.0121814-.38573379.3857338-.39115363 1.0094397-.01218142 1.4018186l2 2c.39049985.3903819 1.02350015.3903819 1.414 0l4-4c.3789722-.3923789.3735524-1.0160848-.0121814-1.4018186s-1.0094397-.3911536-1.4018186-.0121814z"/><path id="Shape" d="m19 19h18c.5522847 0 1-.4477153 1-1s-.4477153-1-1-1h-18c-.5522847 0-1 .4477153-1 1s.4477153 1 1 1z"/><path id="Shape" d="m10.293 25.293-3.293 3.293-1.293-1.293c-.39237889-.3789722-1.01608478-.3735524-1.40181858.0121814-.38573379.3857338-.39115363 1.0094397-.01218142 1.4018186l2 2c.39049985.3903819 1.02350015.3903819 1.414 0l4-4c.3789722-.3923789.3735524-1.0160848-.0121814-1.4018186s-1.0094397-.3911536-1.4018186-.0121814z"/><path id="Shape" d="m19 29h18c.5522847 0 1-.4477153 1-1s-.4477153-1-1-1h-18c-.5522847 0-1 .4477153-1 1s.4477153 1 1 1z"/><path id="Shape" d="m10.293 35.293-3.293 3.293-1.293-1.293c-.39237889-.3789722-1.01608478-.3735524-1.40181858.0121814-.38573379.3857338-.39115363 1.0094397-.01218142 1.4018186l2 2c.39049985.3903819 1.02350015.3903819 1.414 0l4-4c.3789722-.3923789.3735524-1.0160848-.0121814-1.4018186s-1.0094397-.3911536-1.4018186-.0121814z"/><path id="Shape" d="m19 39h18c.5522847 0 1-.4477153 1-1s-.4477153-1-1-1h-18c-.5522847 0-1 .4477153-1 1s.4477153 1 1 1z"/><path id="Shape" d="m10.293 45.293-3.293 3.293-1.293-1.293c-.39237889-.3789722-1.01608478-.3735524-1.40181858.0121814-.38573379.3857338-.39115363 1.0094397-.01218142 1.4018186l2 2c.39049985.3903819 1.02350015.3903819 1.414 0l4-4c.3789722-.3923789.3735524-1.0160848-.0121814-1.4018186s-1.0094397-.3911536-1.4018186-.0121814z"/><path id="Shape" d="m37 47h-18c-.5522847 0-1 .4477153-1 1s.4477153 1 1 1h18c.5522847 0 1-.4477153 1-1s-.4477153-1-1-1z"/><path id="Shape" d="m51 0c-3.3123376.00330738-5.9966926 2.68766243-6 6v42c-.0001227.1252445.0232832.2493974.069.366l4.11 10.461c.3286124.7223121 1.0531903 1.18202 1.8466717 1.1716194.7934814-.0104007 1.5057611-.4889423 1.8153283-1.2196194l4.09-10.413c.0457168-.1166026.0691227-.2407555.069-.366v-42c-.0033074-3.31233757-2.6876624-5.99669262-6-6zm1.862 53.311c-1.2038869-.3791159-2.4948899-.3812094-3.7-.006l-1.695-4.305h7.071zm-5.862-41.311h8v2h-8zm3 4v31h-3v-31zm2 31v-31h3v31zm-1-45c2.209139 0 4 1.790861 4 4v4h-8v-4c0-2.209139 1.790861-4 4-4zm-1.111 53.166c.7362512-.2033585 1.5142142-.2005912 2.249.008l-1.117 2.874z"/></g></g></svg>