<svg fill="#3481b8" height="512" viewBox="0 0 60 60" width="512" xmlns="http://www.w3.org/2000/svg"><g id="Page-1" fill="#3481b8"><g id="019---Connections" fill="#3481b8" transform="translate(-1)"><path id="Shape" d="m52 7c-1.0226743.00204391-2.0374091.17962249-3 .525v-3.525c0-2.209139-1.790861-4-4-4h-28c-2.209139 0-4 1.790861-4 4v3.525c-3.73225521-1.33388955-7.8977994-.06918127-10.2584415 3.1145837-2.3606421 3.1837649-2.3606421 7.5370677 0 10.7208326 2.3606421 3.183765 6.52618629 4.4484732 10.2584415 3.1145837v31.525c0 2.209139 1.790861 4 4 4h28c2.209139 0 4-1.790861 4-4v-31.525c3.3803137 1.2080494 7.1552536.2918369 9.6056821-2.3313871s3.1076866-6.4517522 1.6724536-9.7420425c-1.4352329-3.29029035-4.6884599-5.4130551-8.2781357-5.4015704zm-13.309-5-1.283 1.368c-.3778598.40298537-.9055734.63173367-1.458.632h-9.9c-.5526257-.00070589-1.0804819-.22935917-1.459-.632l-1.282-1.368zm-23.691 2c0-1.1045695.8954305-2 2-2h3.567l2.565 2.736c.7573847.80478557 1.8128722 1.26199467 2.918 1.264h9.9c1.105276-.00129287 2.1610336-.45861896 2.918-1.264l2.565-2.736h3.567c1.1045695 0 2 .8954305 2 2v4.522c-3.8253773 2.547351-5.1079289 7.5730881-2.971 11.642l-6.06 9.086c-1.7536652-1.2603013-3.8168391-2.0203816-5.969-2.199v-2.11c4.7464325-.5306673 8.2518025-4.6764411 7.9860572-9.4450477-.2657454-4.7686066-4.2100516-8.49922421-8.9860572-8.49922421s-8.7203118 3.73061761-8.9860572 8.49922421c-.2657453 4.7686066 3.2396247 8.9143804 7.9860572 9.4450477v2.11c-2.1522586.1789135-4.2154408.9393425-5.969 2.2l-6.06-9.086c2.1375404-4.0691543.8549254-9.0955718-2.971-11.643zm10 42.982c.0048537-2.0090669 1.0194054-3.8811026 2.7-4.982 2.0004074 1.325298 4.5995926 1.325298 6.6 0 1.6805946 1.1008974 2.6951463 2.9729331 2.7 4.982-3.5472079 2.691593-8.4527921 2.691593-12 0zm6-5.982c-2.209139 0-4-1.790861-4-4s1.790861-4 4-4 4 1.790861 4 4-1.790861 4-4 4zm7.791 4.254c-.410626-1.8601701-1.475138-3.5112283-3-4.653 1.8677923-2.4732098 1.5445772-5.9619797-.7457839-8.0499597s-5.7940711-2.08798-8.0844322 0-2.6135762 5.5767499-.7457839 8.0499597c-1.524862 1.1417717-2.589374 2.7928299-3 4.653-3.2875592-4.0857214-2.860435-10.0170758.9786042-13.589602 3.8390391-3.5725262 9.7857525-3.5725262 13.6247916 0 3.8390392 3.5725262 4.2661634 9.5038806.9786042 13.589602zm-2.115-25.174c-.415584-1.2182833-1.212626-2.2702526-2.273-3 1.036012-1.6770102.6958298-3.8587784-.8015527-5.1407806-1.4973825-1.2820023-3.7055121-1.2820023-5.2028946 0-1.4973825 1.2820022-1.8375647 3.4637704-.8015527 5.1407806-1.060374.7297474-1.857416 1.7817167-2.273 3-2.0934958-2.9005435-1.6633007-6.9128309.9975286-9.3036183 2.6608293-2.39078749 6.6961135-2.39078749 9.3569428 0 2.6608293 2.3907874 3.0910244 6.4030748.9975286 9.3036183zm-7.676-5.08c0-1.1045695.8954305-2 2-2s2 .8954305 2 2-.8954305 2-2 2-2-.8954305-2-2zm.087 3.491c1.1850259.6787401 2.6409741.6787401 3.826 0 1.2025275.6598933 1.9830564 1.8899433 2.068 3.259-2.3923089 1.6667671-5.5696911 1.6667671-7.962 0 .0849436-1.3690567.8654725-2.5991067 2.068-3.259zm-26.087-2.491c-.00722526-3.0319224 1.93826106-5.7238353 4.81931893-6.66835161 2.88105787-.94451632 6.04266517.07310419 7.83186887 2.52082871 1.7892038 2.4477246 1.7992201 5.7690514.0248122 8.2275229-.415584-1.2182833-1.212626-2.2702526-2.273-3 1.036012-1.6770102.6958298-3.8587784-.8015527-5.1407806-1.4973825-1.2820023-3.70551209-1.2820023-5.2028946 0-1.49738252 1.2820022-1.83756473 3.4637704-.8015527 5.1407806-1.06037396.7297474-1.857416 1.7817167-2.273 3-.86017059-1.1865395-1.32354905-2.6144731-1.324-4.08zm5-1c0-1.1045695.8954305-2 2-2s2 .8954305 2 2-.8954305 2-2 2-2-.8954305-2-2zm-1.981 6.75c.08494365-1.3690567.86547247-2.5991067 2.068-3.259 1.18502593.6787401 2.6409741.6787401 3.826 0 1.2025275.6598933 1.9830564 1.8899433 2.068 3.259-2.3923089 1.6667671-5.56969109 1.6667671-7.962 0zm38.981 36.25h-28c-1.1045695 0-2-.8954305-2-2v-1.556c.6053465.3599241 1.2957468.5518554 2 .556h28c.7042532-.0041446 1.3946535-.1960759 2-.556v1.556c0 1.1045695-.8954305 2-2 2zm2-7c0 1.1045695-.8954305 2-2 2h-28c-1.1045695 0-2-.8954305-2-2v-27.522c.6467822-.4367834 1.234327-.9554228 1.748-1.543l5.745 8.612c-4.6686197 4.6926112-4.6556571 12.2794036.0289706 16.9560341 4.6846276 4.6766305 12.2714312 4.6766305 16.9560588 0 4.6846277-4.6766305 4.6975903-12.2634229.0289706-16.9560341l5.745-8.612c.513673.5875772 1.1012178 1.1062166 1.748 1.543zm1.019-29.25c.0849436-1.3690567.8654725-2.5991067 2.068-3.259 1.1850259.6787401 2.6409741.6787401 3.826 0 1.2025275.6598933 1.9830564 1.8899433 2.068 3.259-2.3923089 1.6667671-5.5696911 1.6667671-7.962 0zm3.981-4.75c-1.1045695 0-2-.8954305-2-2s.8954305-2 2-2 2 .8954305 2 2-.8954305 2-2 2zm5.676 3.08c-.415584-1.2182833-1.212626-2.2702526-2.273-3 1.036012-1.6770102.6958298-3.8587784-.8015527-5.1407806-1.4973825-1.2820023-3.7055121-1.2820023-5.2028946 0-1.4973825 1.2820022-1.8375647 3.4637704-.8015527 5.1407806-1.060374.7297474-1.857416 1.7817167-2.273 3-2.0934958-2.9005435-1.6633007-6.9128309.9975286-9.3036183 2.6608293-2.39078749 6.6961135-2.39078749 9.3569428 0 2.6608293 2.3907874 3.0910244 6.4030748.9975286 9.3036183z"/></g></g></svg>