<?xml version="1.0" encoding="iso-8859-1"?>
<!-- Generator: Adobe Illustrator 19.0.0, SVG Export Plug-In . SVG Version: 6.00 Build 0)  -->
<svg fill="#3481b8" version="1.1" id="Capa_1" xmlns="http://www.w3.org/2000/svg" xmlns:xlink="http://www.w3.org/1999/xlink" x="0px" y="0px"
	 viewBox="0 0 512 512" style="enable-background:new 0 0 512 512;" xml:space="preserve">
<g>
	<g>
		<g>
			<path d="M157.867,379.733c-16.495,0-29.867,13.372-29.867,29.867c0,16.495,13.372,29.867,29.867,29.867
				c16.495,0,29.867-13.372,29.867-29.867C187.713,393.113,174.353,379.753,157.867,379.733z M157.867,422.4
				c-7.069,0-12.8-5.731-12.8-12.8c0-7.069,5.731-12.8,12.8-12.8c7.069,0,12.8,5.731,12.8,12.8
				C170.659,416.666,164.933,422.392,157.867,422.4z"/>
			<path d="M187.733,209.067H68.267c-14.132,0.015-25.585,11.468-25.6,25.6V294.4c0.015,14.132,11.468,25.585,25.6,25.6h119.467
				c14.132-0.015,25.585-11.468,25.6-25.6v-59.733C213.318,220.535,201.865,209.082,187.733,209.067z M196.267,294.4
				c-0.006,4.71-3.823,8.527-8.533,8.533h-51.2v-25.6c0-4.713-3.82-8.533-8.533-8.533s-8.533,3.821-8.533,8.533v25.6h-51.2
				c-4.71-0.006-8.527-3.823-8.533-8.533v-59.733c0.006-4.71,3.823-8.527,8.533-8.533h51.2V243.2c0,4.713,3.82,8.533,8.533,8.533
				s8.533-3.82,8.533-8.533v-17.067h51.2c4.71,0.006,8.527,3.823,8.533,8.533V294.4z"/>
			<path d="M324.267,302.933h-8.533c-4.713,0-8.533,3.82-8.533,8.533s3.82,8.533,8.533,8.533h8.533c4.713,0,8.533-3.82,8.533-8.533
				S328.979,302.933,324.267,302.933z"/>
			<path d="M503.467,456.533h-1.572c2.384-6.418,2.047-13.531-0.934-19.695c-2.981-6.164-8.348-10.844-14.859-12.96
				c0.145-0.483,0.245-0.978,0.299-1.479v-8.533c14.138,0,25.6-11.462,25.6-25.6s-11.461-25.6-25.6-25.6v-8.533
				c0-4.713-3.82-8.533-8.533-8.533s-8.533,3.82-8.533,8.533v8.533H409.6V226.133c-0.133-81.428-63.766-148.614-145.067-153.168V64
				c-0.015-14.132-11.468-25.585-25.6-25.6h-51.2c-14.132,0.015-25.585,11.468-25.6,25.6v9.398
				C70.26,82.285,0.123,159.432,0,251.733v85.333c0.049,42.395,34.405,76.751,76.8,76.8h17.283
				c1.083,16.314,8.393,31.589,20.418,42.667H8.533c-4.713,0-8.533,3.821-8.533,8.533c0,4.713,3.82,8.533,8.533,8.533h392.533
				c4.713,0,8.533-3.821,8.533-8.533c0-4.713-3.82-8.533-8.533-8.533H201.232c12.025-11.078,19.335-26.352,20.418-42.667h247.683
				v8.533c0.053,0.501,0.153,0.996,0.299,1.479c-6.512,2.115-11.879,6.796-14.86,12.959c-2.981,6.164-3.318,13.277-0.933,19.695
				H435.2c-4.713,0-8.533,3.821-8.533,8.533c0,4.713,3.82,8.533,8.533,8.533h68.267c4.713,0,8.533-3.821,8.533-8.533
				C512,460.354,508.18,456.533,503.467,456.533z M179.2,64c0.006-4.71,3.823-8.527,8.533-8.533h51.2
				c4.71,0.006,8.527,3.823,8.533,8.533v8.533H179.2V64z M157.867,456.533c-25.921,0-46.933-21.013-46.933-46.933
				c0-25.921,21.013-46.933,46.933-46.933c25.921,0,46.933,21.013,46.933,46.933C204.771,435.508,183.775,456.504,157.867,456.533z
				 M349.867,396.8h-85.333V226.133c0.006-4.71,3.823-8.527,8.533-8.533h68.267c4.71,0.006,8.527,3.823,8.533,8.533V396.8z
				 M392.533,371.2v25.6h-25.6V226.133c-0.015-14.132-11.468-25.585-25.6-25.6h-68.267c-14.132,0.015-25.585,11.468-25.6,25.6V396.8
				h-26.89c-6.084-29.798-32.297-51.2-62.71-51.2c-30.413,0-56.626,21.402-62.71,51.2H76.8
				c-32.974-0.037-59.696-26.759-59.733-59.733v-85.333C17.168,162.232,89.698,89.702,179.2,89.6H256
				c75.37,0.086,136.447,61.164,136.533,136.533V371.2z M409.6,396.8v-17.067h76.8c4.713,0,8.533,3.82,8.533,8.533
				s-3.82,8.533-8.533,8.533H409.6z M477.867,456.533c-4.713,0-8.533-3.82-8.533-8.533s3.82-8.533,8.533-8.533
				c4.71,0.006,8.527,3.823,8.533,8.533C486.4,452.713,482.58,456.533,477.867,456.533z"/>
		</g>
	</g>
</g>
<g>
</g>
<g>
</g>
<g>
</g>
<g>
</g>
<g>
</g>
<g>
</g>
<g>
</g>
<g>
</g>
<g>
</g>
<g>
</g>
<g>
</g>
<g>
</g>
<g>
</g>
<g>
</g>
<g>
</g>
</svg>
