<?xml version="1.0" encoding="iso-8859-1"?>
<!-- Generator: Adobe Illustrator 19.0.0, SVG Export Plug-In . SVG Version: 6.00 Build 0)  -->
<svg fill="#3481b8" version="1.1" id="Capa_1" xmlns="http://www.w3.org/2000/svg" xmlns:xlink="http://www.w3.org/1999/xlink" x="0px" y="0px"
	 viewBox="0 0 503.607 503.607" style="enable-background:new 0 0 503.607 503.607;" xml:space="preserve">
<g>
	<g>
		<g>
			<path d="M500.937,220.447l-39.298-36.587v-66.288c0-4.633-3.752-8.393-8.393-8.393h-71.822L273.146,8.381
				c-11.969-11.146-30.72-11.138-42.689,0l-108.27,100.799H50.361c-4.642,0-8.393,3.76-8.393,8.393v66.288L2.669,220.447
				C0.965,222.033,0,224.257,0,226.591v0.881v266.634v1.083c0,4.633,3.752,8.393,8.393,8.393h1.083h481.884h3.853
				c4.642,0,8.393-3.76,8.393-8.393V226.591C503.607,224.257,502.641,222.033,500.937,220.447z M411.279,263.296l-48.388,26.681
				c4.223-12.222,6.422-25.082,6.422-38.111c0-32.851-13.554-62.589-35.356-83.933h27.12c2.048,26.741,23.451,48.153,50.201,50.201
				V263.296z M233.48,281.075c-1.209-3.483-3.962-5.817-6.874-8.284c-4.91-4.155-8.377-7.487-8.377-12.531
				c0-8.343,3.114-16.35,8.771-22.57c1.897-2.082,2.988-4.784,2.3-7.512c-0.688-2.719-2.317-4.742-4.969-5.682
				c-2.51-2.023-5.825-11.533-6.471-17.316c10.383-3.945,38.241-11.575,61.616,8.687c6.79,6.732,20.186,23.812,18.298,33.641
				c-0.378,1.981-1.586,4.902-7.638,7.462c-2.199,0.932-3.869,2.745-4.642,4.944c-1.116,1.612-4.625,5.422-6.782,7.772
				c-5.389,5.85-7.621,8.343-8.553,11.155c-0.487,1.435-0.865,2.904-1.1,4.339c-1.746,9.904,2.107,20.262,10.29,27.707
				l15.844,14.418l-43.391,23.925l-43.405-23.933l16.126-14.695c6.799-6.194,10.626-14.454,10.492-22.662
				C234.965,286.909,234.453,283.929,233.48,281.075z M304.461,166.038c0.524,0.429,1.105,0.788,1.724,1.082
				c27.856,17.937,46.341,49.222,46.341,84.746c0,18.225-5.006,36.085-14.474,51.807l-27.328,15.068l-20.077-18.276
				c-3.853-3.5-5.783-8.234-5.053-12.422c0.059-0.378,0.151-0.755,0.252-1.133c0.99-1.276,3.492-3.987,5.212-5.859
				c4.214-4.574,6.874-7.554,8.503-9.971c10.164-5.263,13.631-12.8,14.705-18.424c4.071-21.269-20.211-45.979-23.393-49.093
				c-38.131-33.079-82.994-10.483-84.891-9.51c-2.04,1.049-3.559,2.896-4.205,5.095c-2.115,7.235,0.999,23.812,7.848,33.658
				c-5.321,8.142-8.184,17.643-8.184,27.455c0,13.211,9.308,21.093,14.302,25.34c0.814,0.68,1.561,1.259,2.115,1.813
				c0.235,0.898,0.353,1.838,0.369,2.787c0.059,3.399-1.779,7.042-5.019,9.997l-20.342,18.537l-27.321-15.064
				c-9.465-15.721-14.463-33.58-14.463-51.803c0-35.528,18.489-66.816,46.351-84.752c0.607-0.289,1.178-0.643,1.694-1.063
				c15.336-9.448,33.379-14.907,52.676-14.907C271.093,151.144,289.13,156.597,304.461,166.038z M134.297,251.865
				c0,13.03,2.199,25.891,6.423,38.114l-48.392-26.683v-45.162c26.75-2.048,48.153-23.46,50.201-50.201h27.124
				C147.85,189.276,134.297,219.014,134.297,251.865z M313.568,336.334c0.035-0.019,0.07-0.038,0.105-0.058l34.342-18.934
				c0.031-0.017,0.061-0.034,0.092-0.051l75.532-41.643c0.028-0.015,0.055-0.031,0.083-0.046l63.098-34.788v239.995l-217.642-120
				L313.568,336.334z M481.02,224.85l-19.38,10.686v-28.729L481.02,224.85z M241.897,20.669c5.565-5.179,14.252-5.179,19.809,0
				l95.071,88.51H146.826L241.897,20.669z M58.754,125.966h386.098v118.818l-16.787,9.256V209.9c0-2.359-0.99-4.608-2.736-6.203
				c-1.737-1.595-4.012-2.409-6.429-2.157c-0.562,0.059-1.158,0.017-1.754,0l-1.67-0.034c-20.824,0-37.77-16.946-37.77-37.77
				c0-1.15,0.067-2.283,0.176-3.408c0.227-2.35-0.562-4.692-2.149-6.438c-1.595-1.746-3.844-2.745-6.211-2.745h-57.246
				c-17.677-10.652-38.369-16.789-60.47-16.789s-42.793,6.136-60.47,16.789h-57.249c-2.367,0-4.616,0.999-6.211,2.745
				c-1.586,1.746-2.375,4.088-2.149,6.438c0.109,1.125,0.176,2.258,0.176,3.408c0,20.824-16.946,37.77-37.771,37.77l-1.67,0.034
				c-0.596,0.017-1.192,0.059-1.754,0c-2.409-0.235-4.692,0.562-6.429,2.157c-1.746,1.595-2.736,3.844-2.736,6.203v44.14
				l-16.787-9.256V125.966z M41.967,235.534l-19.379-10.685l19.379-18.042V235.534z M16.787,486.796V240.809l63.067,34.775
				c0.046,0.026,0.093,0.052,0.139,0.077l382.913,211.135H16.787z"/>
			<path d="M50.365,377.681c-4.642,0-8.393,3.76-8.393,8.393v67.148c0,4.633,3.752,8.393,8.393,8.393h117.508
				c4.633,0,8.393-3.76,8.393-8.393v-67.148c0-4.633-3.76-8.393-8.393-8.393H50.365z M159.48,444.829H58.758v-50.361H159.48V444.829
				z"/>
		</g>
	</g>
</g>
<g>
</g>
<g>
</g>
<g>
</g>
<g>
</g>
<g>
</g>
<g>
</g>
<g>
</g>
<g>
</g>
<g>
</g>
<g>
</g>
<g>
</g>
<g>
</g>
<g>
</g>
<g>
</g>
<g>
</g>
</svg>
