<svg fill="#3481b8" height="512" viewBox="0 0 60 60" width="512" xmlns="http://www.w3.org/2000/svg"><g id="Page-1" ><g id="052---Shared-Travel"  transform="translate(0 -1)"><path id="Shape" d="m46.5 50c-1.9329966 0-3.5 1.5670034-3.5 3.5s1.5670034 3.5 3.5 3.5 3.5-1.5670034 3.5-3.5-1.5670034-3.5-3.5-3.5zm0 5c-.8284271 0-1.5-.6715729-1.5-1.5s.6715729-1.5 1.5-1.5 1.5.6715729 1.5 1.5-.6715729 1.5-1.5 1.5z"/><path id="Shape" d="m12.5 50c-1.9329966 0-3.5 1.5670034-3.5 3.5s1.5670034 3.5 3.5 3.5 3.5-1.5670034 3.5-3.5-1.5670034-3.5-3.5-3.5zm0 5c-.8284271 0-1.5-.6715729-1.5-1.5s.6715729-1.5 1.5-1.5 1.5.6715729 1.5 1.5-.6715729 1.5-1.5 1.5z"/><path id="Shape" d="m49 24c1.6568542 0 3-1.3431458 3-3v-2.059c4.7464325-.5306673 8.2518025-4.6764411 7.9860572-9.44504771-.2657454-4.76860662-4.2100516-8.4992242-8.9860572-8.4992242s-8.7203118 3.73061758-8.9860572 8.4992242c-.2657453 4.76860661 3.2396247 8.91438041 7.9860572 9.44504771v2.059c0 .5522847-.4477153 1-1 1h-18v-3.059c4.7464325-.5306673 8.2518025-4.6764411 7.9860572-9.44504771-.2657454-4.76860662-4.2100516-8.4992242-8.9860572-8.4992242s-8.7203118 3.73061758-8.9860572 8.4992242c-.2657453 4.76860661 3.2396247 8.91438041 7.9860572 9.44504771v3.059h-18c-.5522847 0-1-.4477153-1-1v-2.059c4.7464325-.5306673 8.2518025-4.6764411 7.9860572-9.44504771-.2657454-4.76860662-4.2100516-8.4992242-8.9860572-8.4992242-4.77600561 0-8.72031184 3.73061758-8.98605718 8.4992242-.26574534 4.76860661 3.23962464 8.91438041 7.98605718 9.44504771v2.059c0 1.6568542 1.34314575 3 3 3h18v3h-13.712c-1.1764898.0001119-2.2443254.6878903-2.731 1.759l-4.201 9.241h-2.356c-2.209139 0-4 1.790861-4 4v8.184c-1.19435086.4222546-1.99474861 1.5492146-2 2.816-.00593167.7916941.30943019 1.5519543.874 2.107.55715833.5752473 1.3251808.8978456 2.126.893h2.438c.40706713 1.1457124 1.08658149 2.1752796 1.98 3h-6.418c-.55228475 0-1 .4477153-1 1s.44771525 1 1 1h58c.5522847 0 1-.4477153 1-1s-.4477153-1-1-1h-7.418c.8932612-.8250522 1.573034-1.8544912 1.981-3h3.437c1.6568542 0 3-1.3431458 3-3-.0044083-1.2675202-.8049605-2.3954984-2-2.818v-8.182c0-2.209139-1.790861-4-4-4h-8.406l-5.148-9.437c-.5256987-.963395-1.5355079-1.5628373-2.633-1.563h-6.813v-3zm-1-7.685v-1.315c0-1.6568542 1.3431458-3 3-3s3 1.3431458 3 3v1.315c-1.895733.9133103-4.104267.9133103-6 0zm2-7.315v-1c0-.55228475.4477153-1 1-1s1 .44771525 1 1v1c0 .55228475-.4477153 1-1 1s-1-.44771525-1-1zm-6 1c-.0041375-3.16228914 2.1123902-5.93464775 5.1639679-6.76408353 3.0515776-.82943579 6.2802931.49005595 7.8775167 3.21933544 1.5972236 2.72927948 1.1662572 6.19048309-1.0514846 8.44474809-.0234365-1.2925307-.5458832-2.5259062-1.458-3.442-.3157477-.3022177-.6689644-.5626772-1.051-.775.3386699-.4958699.5195779-1.08251361.519-1.683v-1c0-1.65685425-1.3431458-3-3-3s-3 1.34314575-3 3v1c-.0005618.60125486.1807044 1.1886269.52 1.685-1.5188043.866734-2.4715777 2.46671-2.51 4.215-1.2878931-1.3057262-2.0099608-3.0659908-2.01-4.9zm-17 6.315v-1.315c0-1.6568542 1.3431458-3 3-3s3 1.3431458 3 3v1.315c-1.895733.9133103-4.104267.9133103-6 0zm2-7.315v-1c0-.55228475.4477153-1 1-1s1 .44771525 1 1v1c0 .55228475-.4477153 1-1 1s-1-.44771525-1-1zm-6 1c-.0041375-3.16228914 2.1123902-5.93464775 5.1639679-6.76408353 3.0515776-.82943579 6.2802931.49005595 7.8775167 3.21933544 1.5972236 2.72927948 1.1662572 6.19048309-1.0514846 8.44474809-.0234365-1.2925307-.5458832-2.5259062-1.458-3.442-.3157477-.3022177-.6689644-.5626772-1.051-.775.3386699-.4958699.5195779-1.08251361.519-1.683v-1c0-1.65685425-1.3431458-3-3-3s-3 1.34314575-3 3v1c-.0005618.60125486.1807044 1.1886269.52 1.685-1.5188043.866734-2.4715777 2.46671-2.51 4.215-1.2878931-1.3057262-2.0099608-3.0659908-2.01-4.9zm-17 6.315v-1.315c0-1.6568542 1.34314575-3 3-3 1.6568542 0 3 1.3431458 3 3v1.315c-1.895733.9133103-4.10426697.9133103-6 0zm2-7.315v-1c0-.55228475.44771525-1 1-1s1 .44771525 1 1v1c0 .55228475-.44771525 1-1 1s-1-.44771525-1-1zm-6 1c-.00413755-3.16228914 2.11239025-5.93464775 5.16396787-6.76408353 3.05157763-.82943579 6.28029313.49005595 7.87751673 3.21933544 1.5972236 2.72927948 1.1662572 6.19048309-1.0514846 8.44474809-.0234365-1.2925307-.5458832-2.5259062-1.458-3.442-.3157477-.3022177-.6689644-.5626772-1.051-.775.3386699-.4958699.5195779-1.08251361.519-1.683v-1c0-1.65685425-1.3431458-3-3-3-1.65685425 0-3 1.34314575-3 3v1c-.00056178.60125486.18070439 1.1886269.52 1.685-1.51880428.866734-2.47157767 2.46671-2.51 4.215-1.28789314-1.3057262-2.00996084-3.0659908-2.01-4.9zm1 44c-.2693445.0003954-.52692903-.110308-.712-.306-.18659849-.1823963-.29062758-.4330776-.288-.694 0-.5522847.44771525-1 1-1h2.151c-.10065983.4936481-.15124943.9961937-.151 1.5 0 .169.014.334.025.5zm4-.5c0-3.0375661 2.46243388-5.5 5.5-5.5 3.0375661 0 5.5 2.4624339 5.5 5.5s-2.4624339 5.5-5.5 5.5c-3.03619535-.0033068-5.4966932-2.4638047-5.5-5.5zm10.582 5.5c.8932612-.8250522 1.573034-1.8544912 1.981-3h19.875c.4070671 1.1457124 1.0865815 2.1752796 1.98 3zm21.443-5h-19.05c.011-.166.025-.331.025-.5.0002494-.5038063-.0503402-1.0063519-.151-1.5h19.3c-.0999882.4937163-.1499077.9962613-.149 1.5 0 .169.014.334.025.5zm7.475 5c-3.0375661 0-5.5-2.4624339-5.5-5.5s2.4624339-5.5 5.5-5.5 5.5 2.4624339 5.5 5.5c-.0033068 3.0361953-2.4638047 5.4966932-5.5 5.5zm10.5-5h-3.025c.011-.166.025-.331.025-.5.0002494-.5038063-.0503402-1.0063519-.151-1.5000011l3.151.0000011c.2693445-.0003954.526929.110308.712.306.1865985.1823963.2906276.4330776.288.694 0 .5522847-.4477153 1-1 1zm-1-12v1h-3.241c-.971012-.0011022-1.7578978-.787988-1.759-1.759v-1.241h3c1.1045695 0 2 .8954305 2 2zm-7-2v1.241c.0027544 2.0748964 1.6841036 3.7562456 3.759 3.759h3.241v5h-2.872c-1.2956778-2.4602099-3.847458-4.0003415-6.628-4.0003415s-5.3323222 1.5401316-6.628 4.0003415h-20.744c-1.2956778-2.4602099-3.847458-4.0003415-6.628-4.0003415-2.78054203 0-5.33232215 1.5401316-6.628 4.0003415h-1.872v-8c0-1.1045695.8954305-2 2-2zm-10.31-10.479 4.626 8.479h-5.657l-2.74-6.394c-.2225705-.4993742-.8049312-.7274312-1.3074258-.5119982-.5024946.2154329-.7388258.7944852-.5305742 1.2999982l2.403 5.606h-13.825l-2.74-6.394c-.2225705-.4993742-.8049312-.7274312-1.3074258-.5119982-.5024946.2154329-.7388258.7944852-.5305742 1.2999982l2.403 5.606h-8.931l3.825-8.414c.1622734-.3567965.5180352-.5858915.91-.586h22.525c.3655917.000298.7018816.200078.877.521z"/></g></g></svg>