<svg fill="#3481b8" height="512" viewBox="0 0 47 60" width="512" xmlns="http://www.w3.org/2000/svg"><g id="Page-1" ><g id="007---Search-Profile" ><path id="Shape" d="m27 44c6.5080865.0002257 12.3678434-3.9415852 14.8206797-9.969751 2.4528364-6.0281659 1.0099505-12.9413927-3.6493918-17.4851486-4.6593424-4.543756-11.6066266-5.8125607-17.5712879-3.2091004-.3384517.135572-.5762964.4446005-.6207098.80648-.0444133.3618795.1116443.7192515.4072679.9326433.2956235.2133919.683956.2489805 1.0134419.0928767 1.7652723-.7740872 3.6724673-1.1718735 5.6-1.168 6.9524375.0137028 12.8415048 5.1273803 13.8301394 12.0091807.9886347 6.8818003-3.2227254 13.4464982-9.8901394 15.4168193-.5439346-.8731259-.6546318-1.9483656-.3-2.914 2.1854102-.9236619 3.9373397-2.6444858 4.9-4.813 1.8221364-.0744757 3.2697226-1.5575936 3.3-3.381-.0151452-1.4049675-.8929446-2.6559012-2.209-3.148.576-2.133 1.278-6.714-2.46-8.856-2-1.146-5.014-1.022-8.206-.89-3.812.155-7.75.318-8.9-1.888-.2047507-.3901922-.6407766-.6003737-1.0735637-.5174996-.4327872.0828742-.7603198.439269-.8064363.8774996-.031.3-.6 6.178 2.494 9.194v1.982c-1.6218504.4333845-2.6776472 1.9940846-2.4764515 3.6607403.2011958 1.6666556 1.5980604 2.9312747 3.2764515 2.9662597.9623691 2.1689492 2.714352 3.8901831 4.9 4.814.365005.9643082.2538199 2.0442859-.3 2.914-3.6977162-1.0819251-6.7858543-3.6403851-8.5365811-7.0723849-1.7507268-3.4319999-2.0091703-7.4339396-.7144189-11.0626151.1310314-.3387066.0681318-.7218284-.1643177-1.00086s-.5979055-.4101064-.9547101-.3424173c-.3568047.0676891-.6488648.3235007-.7629722.6682773-1.7498528 4.897922-1.0097818 10.3407632 1.9843187 14.593643 2.9941006 4.2528798 7.8685655 6.7850366 13.0696813 6.789357zm-6.921-11.67c-.1392595-.4024582-.5181296-.6725637-.944-.673-.0695288.0000562-.1388765.0070915-.207.021-.0858667.0177795-.173312.0268256-.261.027-.5220163.0420918-1.0234314-.2125844-1.2973551-.6589459-.2739236-.4463615-.2739236-1.0087467 0-1.4551082.2739237-.4463615.7753388-.7010377 1.2973551-.6589459.5522847 0 1-.4477153 1-1v-1.561c.118.046.238.088.363.128.5266035.1673423 1.0891577-.1238965 1.2565-.6505.1673422-.5266035-.1238965-1.0891577-.6505-1.2565-.4775237-.150302-.9213793-.3917568-1.307-.711l-.042-.035c-1.533-1.3-2.006-3.666-2.131-5.442 2.233 1.291 5.6 1.153 8.884 1.018 2.768-.113 5.631-.231 7.13.627 3.361 1.926 1.254 7.463 1.231 7.518-.120736.3079616-.0813711.6557023.1051514.9288816.1865224.2731793.4960655.4364468.8268486.4361184.5220163-.0420918 1.0234314.2125844 1.2973551.6589459.2739236.4463615.2739236 1.0087467 0 1.4551082-.2739237.4463615-.7753388.7010377-1.2973551.6589459-.087688-.0001744-.1751333-.0092205-.261-.027-.4931437-.1037263-.9864215.1756978-1.151.652-1.0144133 2.9567302-3.7950941 4.9425005-6.921 4.9425005s-5.9065867-1.9857703-6.921-4.9425005zm5.452 6.819c.4855436.0807039.9767984.1221713 1.469.124.4931745-.002326.9853865-.0437895 1.472-.124-.1129978.9241045.0334688 1.8614215.423 2.707-1.2544126.191334-2.5305874.191334-3.785 0 .3871287-.8462901.5328256-1.7831112.421-2.707z"/><path id="Shape" d="m3 60c.87554753-.0026776 1.70677774-.3854521 2.278-1.049l3.722-4.341v1.39c0 2.209139 1.790861 4 4 4h28c2.209139 0 4-1.790861 4-4v-19.34c2.6666516-5.4654076 2.6666516-11.8545924 0-17.32v-15.34c0-2.209139-1.790861-4-4-4h-28c-2.209139 0-4 1.790861-4 4v15.34c-2.66665164 5.4654076-2.66665164 11.8545924 0 17.32v8.729l-8.278 9.66c-.51861108.6055099-.77487579 1.3925455-.71220913 2.1873239.06266666.7947783.43911013 1.5319261 1.04620913 2.0486761.54375713.4595231 1.23208152.7126876 1.944.715zm38-2h-28c-1.1045695 0-2-.8954305-2-2v-1.547c.6065346.3560589 1.2966812.544814 2 .547h28c.7042532-.0041446 1.3946535-.1960759 2-.556v1.556c0 1.1045695-.8954305 2-2 2zm2-7c0 1.1045695-.8954305 2-2 2h-28c-.723467-.0020019-1.3887329-.3968719-1.737-1.031l5.728-6.68c8.7628664 5.1131694 19.9697046 2.8122537 26.009-5.34zm-8.309-49-1.283 1.368c-.3778598.40298537-.9055734.63173367-1.458.632h-9.9c-.5526257-.00070589-1.0804819-.22935917-1.459-.632l-1.282-1.368zm-23.691 2c0-1.1045695.8954305-2 2-2h3.567l2.565 2.736c.7573847.80478557 1.8128722 1.26199467 2.918 1.264h9.9c1.105276-.00129287 2.1610336-.45861896 2.918-1.264l2.565-2.736h3.567c1.1045695 0 2 .8954305 2 2v12.051c-3.7584116-5.0648604-9.6929826-8.05109909-16-8.05109909s-12.2415884 2.98623869-16 8.05109909zm16 6c9.9411255 0 18 8.0588745 18 18s-8.0588745 18-18 18-18-8.0588745-18-18c.01157214-9.9363282 8.0636718-17.9884279 18-18zm-16 29.949c.4099469.5473005.8471661 1.0736323 1.31 1.577l-1.31 1.529zm-8.76 16.4 11.5-13.419c.4993333.444 1.019.8623333 1.559 1.255l-11.534 13.459c-.36445689.4095262-.9861489.4610038-1.413.117-.20186742-.1721015-.32708194-.4173594-.34808705-.6817988-.02100511-.2644393.06392056-.5263892.23608705-.7282012z"/><path id="Shape" d="m19 48c-.5522847 0-1 .4477153-1 1v2c0 .5522847.4477153 1 1 1s1-.4477153 1-1v-2c0-.5522847-.4477153-1-1-1z"/><path id="Shape" d="m35 48c-.5522847 0-1 .4477153-1 1v2c0 .5522847.4477153 1 1 1s1-.4477153 1-1v-2c0-.5522847-.4477153-1-1-1z"/></g></g></svg>