<svg fill="#3481b8" height="512" viewBox="0 0 60 60" width="512" xmlns="http://www.w3.org/2000/svg"><g id="Page-1" ><g id="018---Use-Inhaler"  transform="translate(-1 -1)"><path id="Shape" d="m6.144 44.453-.07.172c-.31029851.6792391-.6619585 1.3388103-1.053 1.975-2.37944518 3.6949384-3.76448613 7.9416854-4.021 12.329-.02383536.5382084.17468699 1.0625388.549 1.45.37963854.3949176.90320325.6189932 1.451.621h27c.5697087-.0010443 1.1124056-.2429694 1.494-.666.3747888-.413973.556491-.967438.5-1.523-.26-2.5-1.478-3.715-3.165-5.4l-.117-.117c-.5258721-.5963008-.9170834-1.2989122-1.147-2.06-.591319-1.6067062-.5991061-3.3701341-.022-4.982.3477917-1.0922231 1.1055819-2.0070199 2.114-2.552 2.2222346.7982393 4.4858458 1.476221 6.781 2.031 1.645508.3419159 3.275652-.6453361 3.735-2.262.3655959-.9554743.4129442-2.0034501.135-2.988-.0949445-.2603768-.1187622-.5413569-.069-.814.043-.171.181-.271.631-.529.1992224-.1102415.3927982-.230392.58-.36.3016219-.2161472.5006307-.5472256.55-.915.0380329-.3922709-.0350873-.7873278-.211-1.14.235-.181.472-.369.614-.5.883-.744.318-1.746.014-2.284-.105-.187-.227-.4-.346-.652-.0885182-.2140826-.1131772-.4492108-.071-.677.2543463-.2382215.5493477-.4289055.871-.563.3026134-.1418606.5926524-.3091265.867-.5.6533235-.3620269 1.1128386-.9947298 1.255-1.728.1-1.105-.8-2.194-3.222-4.8-.6856686-1.1158193-1.1968961-2.3298162-1.516-3.6 0-.167.33-.469.595-.711.6301643-.4675482 1.0690447-1.1480793 1.235-1.915.0030911-.8871842-.231356-1.7590234-.679-2.525-.2894289-.5970693-.523735-1.2193192-.7-1.859l-.067-.292c-.1883116-.8987411-.4338109-1.7845428-.735-2.652-.7157447-1.98709649-1.8294665-3.80723029-3.273-5.349-2.222-2.353-5.292-3.309-8-3.934-9.951-2.303-15.476-1.374-21.893 3.674-2.34643811 1.75851068-4.05999271 4.2299027-4.884 7.044-.61399726 2.2529605-.90159369 4.5823569-.854 6.917.063 4.225 1.9 6.699 3.51 8.883.82762277 1.0317784 1.53579735 2.1539215 2.111 3.345.96227713 2.199526 1.32058766 4.6158783 1.038 7-.19692082 1.8751063-.70912427 3.7034867-1.515 5.408zm-3.144 14.563c.25172622-4.0641299 1.54409228-7.9952918 3.753-11.416l.074-.13c5.684 6.933 16.416 7.552 20.028 7.552.3 0 .549 0 .745-.009 1.469 1.473 2.221 2.287 2.4 3.987zm3.117-31.508c-1.575-2.128-3.063-4.138-3.117-7.719-.04611977-2.1397181.21418512-4.2750265.773-6.341.70317577-2.4120941 2.17870909-4.52667389 4.2-6.019 3.542-2.786 6.784-4.429 11.806-4.429 2.8333888.05884593 5.651141.43655891 8.4 1.126 2.54.586 5.146 1.4 7 3.358 1.256965 1.34588423 2.2263688 2.9338826 2.849 4.667.2723528.788655.493808 1.5939769.663 2.411l.069.295c.2023988.765359.4780032 1.5094574.823 2.222.2364303.4534654.4125884.9358832.524 1.435-.025.181-.334.465-.607.716-.7060583.5072581-1.1587842 1.2946075-1.242 2.16.315619 1.7904326 1.0149571 3.4913594 2.05 4.986.9924173.9833003 1.8869528 2.0606948 2.671 3.217-.1382304.1233955-.2827572.239551-.433.348-.1861615.1229886-.380628.2329189-.582.329-.725.37-1.718.878-1.923 1.961-.1247479.6490999-.0440007 1.3209448.231 1.922.139.3.284.553.41.776l.05.089c-.306.241-.683.525-.853.651-.2162121.1606156-.3584916.4016584-.3946312.6685647-.0361397.2669064.0369165.5371061.2026312.7494353.0730072.0991022.1398019.202634.2.31l-.011.006c-.758896.3311408-1.3347843.977919-1.576 1.77-.133276.5839847-.1122535 1.1926033.061 1.766.1887604.6149804.1608756 1.2760987-.079 1.873-.1370817.6577593-.7759116 1.0843874-1.436.959-2.3359634-.5718854-4.6393207-1.269569-6.9-2.09h-.006c-.78-.267-1.492-.517-2.069-.72-.626-.22-1.1-.385-1.338-.461-3.4-1.071-3.885-2.284-3.87-2.912.0082171-.3572656-.1747889-.6917764-.4800814-.8775254-.3052925-.1857491-.6864904-.1945166-1-.023-.3135097.1715165-.5117015.4972598-.5199186.8545254-.05 2.112 1.724 3.75 5.269 4.865.228.072.678.231 1.276.441l.149.052c-.7539669.7444448-1.3317559 1.6482012-1.691 2.645-.7437428 2.05099-.7437428 4.29801 0 6.349.1339806.3803529.2905937.7523506.469 1.114-4.009-.107-13.677-1.06-18.283-7.474.023-.051.05-.106.071-.157l.077-.177c.87293399-1.8696738 1.4298193-3.8711493 1.648-5.923.32485012-2.7369196-.0862841-5.5109536-1.191-8.036-.63454071-1.3297995-1.41968331-2.5823368-2.34-3.733z"/><path id="Shape" d="m60 21.278v-2.278c0-1.1045695-.8954305-2-2-2h-4c-1.1045695 0-2 .8954305-2 2v2.278c-.6167513.3544126-.997855 1.0106732-1 1.722v9.359l-2.9 1.2c-.7403797.2881335-1.2376429.989967-1.264 1.784l-1.582.632c-.4925287.197029-.8866055.5816588-1.095525 1.0692627s-.2155653 1.0382331-.018475 1.5307373l1.26 3.143c.197029.4925287.5816588.8866055 1.0692627 1.095525s1.0382331.2155653 1.5307373.018475l1.463-.587c.548127.6883321 1.4817401.9375662 2.3.614l7.332-2.94c1.1522381-.4459574 1.909956-1.5564814 1.905-2.792v-14.127c-.002145-.7113268-.3832487-1.3675874-1-1.722zm-2-2.278v2h-4v-2zm-10.743 21.976-1.257-3.143 1.413-.564 1.235 3.148zm11.743-3.849c-.0002987.4138913-.2555406.784827-.642.933l-7.333 2.94-2.172-5.586 2.878-1.194c.7675275-.2977405 1.2721347-1.0377515 1.269-1.861v-5.359h3c.5522847 0 1-.4477153 1-1s-.4477153-1-1-1h-3v-2h6z"/><path id="Shape" d="m7.475 14.933c.11478328.0445476.23687562.0672703.36.067.4133894.0000197.78417982-.2543274.933-.64 1.7288364-4.42255732 5.9835785-7.34045727 10.732-7.36.5522847 0 1-.44771525 1-1s-.4477153-1-1-1c-5.5748817.02205827-10.57048522 3.44761498-12.6 8.64-.095384.2477002-.08837721.52316.01947667.7656906.10785387.2425305.30770528.4322319.55552333.5273094z"/><path id="Shape" d="m7.052 17c-.54572575-.0066309-1.00188965.4135662-1.04.958-.012.181-.012.361-.012.542s0 .361.011.541c.02200294.5362105.46333846.9594512 1 .959h.042c.55169253-.0227299.98055446-.4883003.958-1.04-.00733333-.1526667-.011-.306-.011-.46s.003-.307.009-.459c.02313001-.5517083-.40529711-1.0177403-.957-1.041z"/></g></g></svg>