<svg fill="#3481b8" height="60" viewBox="0 0 60 60" width="60" xmlns="http://www.w3.org/2000/svg"><g id="Page-1" ><g id="014---Searching-Map" ><path id="Shape" d="m42.15 36c1.0629785-1.8341403 1.6955519-3.8857295 1.85-6v-.1c.2592075-4.0205217-1.2362553-7.9561422-4.1-10.79-1.0139572-1.033189-2.1893248-1.8944497-3.48-2.55-3.6711438-1.888655-7.9887232-2.060669-11.7984824-.470056-3.8097591 1.590613-6.7232258 4.781662-7.9615176 8.720056l-.1.27c-1.1323033 3.8777054-.5344325 8.0555098 1.64 11.46.5469825.8524445 1.1839715 1.6436519 1.9 2.36 2.6255504 2.6258183 6.1867216 4.1010102 9.9 4.1010102s7.2744496-1.4751919 9.9-4.1010102c.7319079-.7344682 1.3823466-1.5458402 1.94-2.42zm-.15-7.62-14.45-6.23 8.35-3.59c.9496031.5422764 1.8181275 1.2155511 2.58 2 2.1044423 2.0786023 3.3593308 4.8664512 3.52 7.82zm-20.48-7.86c3.0747329-3.1144578 7.6216516-4.2694752 11.81-3l-8.7 3.74c-.3687533.1570883-.6080816.5191812-.6080816.92s.2393283.7629117.6080816.92l17.27 7.45c-.1648464 1.2660961-.5293708 2.4980533-1.08 3.65l-22-9.5c.5948229-1.5683151 1.5150064-2.9928956 2.7-4.18zm-3.26 6.09 19.43 8.39h-18.07c-1.4679851-2.5348612-1.9520653-5.5212093-1.36-8.39zm11.74 14.39c-3.1841733.0105261-6.2392906-1.2576358-8.48-3.52-.16-.15-.29-.32-.44-.48h17.84c-.15.16-.28.33-.44.48-2.2407094 2.2623642-5.2958267 3.5305261-8.48 3.52z"/><path id="Shape" d="m59.12 51.71-8.56-8.56c-.6725362-.6689913-1.621854-.9804862-2.56-.84l-3.14-3.13c1.8519356-2.7182359 2.9177313-5.8948606 3.08-9.18h9.64c.6516197-.0002772 1.2622506-.3179822 1.6364641-.8514356.3742136-.5334534.4650867-1.2157646.2435359-1.8285644l-3.54-9.93c-.0123446-.0416668-.0291065-.0818952-.05-.12l-5.69-15.94c-.282953-.79583782-1.03536-1.32812574-1.88-1.33h-36.59c-.8483087-.00235873-1.6058188.53070388-1.89 1.33l-7.3 20.45c-.00394399.0399028-.00394399.0800972 0 .12l-1.98 5.41c-.09530705.2829388-.12605915.583626-.09.88-.00503521.0297887-.00503521.0602113 0 .09v.15c.20540964.9342904 1.04365601 1.5923138 2 1.57h9.64c.3649711 6.2072019 3.9076972 11.7864855 9.3702667 14.7568212 5.4625695 2.9703358 12.0713362 2.9110445 17.4797333-.1568212l3.37 3.4c-.1504662.9480005.1617809 1.9107623.84 2.59l8.56 8.56c1.1712702 1.1698135 3.0687298 1.1698135 4.24 0l3.17-3.15c.5772382-.5644214.9026266-1.3376739.9026266-2.145s-.3253884-1.5805786-.9026266-2.145zm-11.18-23.71c-.2278888-4.4193788-2.0838316-8.5979219-5.21-11.73-1.210051-1.1849957-2.5800074-2.1947916-4.07-3l1.69-.72 13.84 6 3.39 9.45zm3.17-18.13-2.35-1 1.72-.74zm-3.3-7.87-13.38 5.77-13.37-5.77zm-31.81 0 18 7.78c.2550505.11131315.5449495.11131315.8 0l14.11-6.08.9 2.53-4 1.71c-.3687533.15708826-.6080816.51918116-.6080816.92s.2393283.76291174.6080816.92l6.19 2.67 1.24 3.45-12.49-5.4c-.2521726-.1084252-.5378274-.1084252-.79 0l-3.77 1.62c-2.1608315-.8027399-4.4557387-1.1829612-6.76-1.12-.0943673-.238801-.2769766-.432152-.51-.54l-17.54-7.53.33-.93zm-4 26h-7.54l8.14-3.52c-.2990223 1.1519605-.4799557 2.3313781-.54 3.52zm-6-9.92 2.28 1-3.14 1.33zm7.49 3.85-10.49 4.53 1.2-3.46 7-3c.3687533-.1570883.6080816-.5191812.6080816-.92s-.2393283-.7629117-.6080816-.92l-4.56-1.97.91-2.53 8.69 3.75c-1.1462085 1.3600924-2.08318 2.8835138-2.78 4.52zm6.69-8-3.46 1.5-8.5-3.66 2.49-7 15.29 6.65-.27.11c-1.9825276.4781218-3.8693879 1.2896746-5.58 2.4zm-1.49 26.38c-4.5781425-4.5751426-5.948957-11.4578505-3.4730757-17.4379283 2.4758814-5.9800778 8.3107254-9.8794875 14.7830757-9.8794875s12.3071943 3.8994097 14.7830757 9.8794875c2.4758813 5.9800778 1.1050668 12.8627857-3.4730757 17.4379283-6.2475393 6.2434456-16.3724607 6.2434456-22.62 0zm24 1.42c.31-.31.58-.64.86-1l2.55 2.55-2.82 2.82-2.66-2.66c.7455769-.5158048 1.4509355-1.0874461 2.11-1.71zm15 12.81-3.17 3.17c-.1877666.1893127-.4433625.2957983-.71.2957983s-.5222334-.1064856-.71-.2957983l-8.56-8.56c-.1893127-.1877666-.2957983-.4433625-.2957983-.71s.1064856-.5222334.2957983-.71l3.17-3.17c.1877666-.1893127.4433625-.2957983.71-.2957983s.5222334.1064856.71.2957983l8.56 8.56c.1893127.1877666.2957983.4433625.2957983.71s-.1064856.5222334-.2957983.71z"/></g></g></svg>